<mxfile host="app.diagrams.net" modified="2021-10-19T16:38:07.856Z" agent="5.0 (Windows NT 10.0; Win64; x64) AppleWebKit/537.36 (KHTML, like Gecko) Chrome/94.0.4606.81 Safari/537.36" etag="JJ_iQrreFxJptXoi1yjA" version="15.5.2" type="github" pages="2">
  <diagram id="Su5zcEnAUri4KOVci702" name="Page-1">
    <mxGraphModel dx="1422" dy="762" grid="1" gridSize="10" guides="1" tooltips="1" connect="1" arrows="1" fold="1" page="1" pageScale="1" pageWidth="850" pageHeight="1100" math="0" shadow="0">
      <root>
        <mxCell id="0" />
        <mxCell id="1" parent="0" />
        <mxCell id="WfEJxo9nf9D_jSNr3ugP-1" value="Skill" style="swimlane;fontStyle=0;childLayout=stackLayout;horizontal=1;startSize=26;horizontalStack=0;resizeParent=1;resizeParentMax=0;resizeLast=0;collapsible=1;marginBottom=0;align=center;fontSize=14;" parent="1" vertex="1">
          <mxGeometry x="80" y="80" width="160" height="116" as="geometry" />
        </mxCell>
        <mxCell id="WfEJxo9nf9D_jSNr3ugP-2" value="Item 1" style="text;strokeColor=none;fillColor=none;spacingLeft=4;spacingRight=4;overflow=hidden;rotatable=0;points=[[0,0.5],[1,0.5]];portConstraint=eastwest;fontSize=12;" parent="WfEJxo9nf9D_jSNr3ugP-1" vertex="1">
          <mxGeometry y="26" width="160" height="30" as="geometry" />
        </mxCell>
        <mxCell id="WfEJxo9nf9D_jSNr3ugP-3" value="Item 2" style="text;strokeColor=none;fillColor=none;spacingLeft=4;spacingRight=4;overflow=hidden;rotatable=0;points=[[0,0.5],[1,0.5]];portConstraint=eastwest;fontSize=12;" parent="WfEJxo9nf9D_jSNr3ugP-1" vertex="1">
          <mxGeometry y="56" width="160" height="30" as="geometry" />
        </mxCell>
        <mxCell id="WfEJxo9nf9D_jSNr3ugP-4" value="Item 3" style="text;strokeColor=none;fillColor=none;spacingLeft=4;spacingRight=4;overflow=hidden;rotatable=0;points=[[0,0.5],[1,0.5]];portConstraint=eastwest;fontSize=12;" parent="WfEJxo9nf9D_jSNr3ugP-1" vertex="1">
          <mxGeometry y="86" width="160" height="30" as="geometry" />
        </mxCell>
        <mxCell id="WfEJxo9nf9D_jSNr3ugP-5" value="Project" style="swimlane;fontStyle=0;childLayout=stackLayout;horizontal=1;startSize=26;horizontalStack=0;resizeParent=1;resizeParentMax=0;resizeLast=0;collapsible=1;marginBottom=0;align=center;fontSize=14;" parent="1" vertex="1">
          <mxGeometry x="570" y="80" width="160" height="116" as="geometry" />
        </mxCell>
        <mxCell id="WfEJxo9nf9D_jSNr3ugP-6" value="Item 1" style="text;strokeColor=none;fillColor=none;spacingLeft=4;spacingRight=4;overflow=hidden;rotatable=0;points=[[0,0.5],[1,0.5]];portConstraint=eastwest;fontSize=12;" parent="WfEJxo9nf9D_jSNr3ugP-5" vertex="1">
          <mxGeometry y="26" width="160" height="30" as="geometry" />
        </mxCell>
        <mxCell id="WfEJxo9nf9D_jSNr3ugP-7" value="Item 2" style="text;strokeColor=none;fillColor=none;spacingLeft=4;spacingRight=4;overflow=hidden;rotatable=0;points=[[0,0.5],[1,0.5]];portConstraint=eastwest;fontSize=12;" parent="WfEJxo9nf9D_jSNr3ugP-5" vertex="1">
          <mxGeometry y="56" width="160" height="30" as="geometry" />
        </mxCell>
        <mxCell id="WfEJxo9nf9D_jSNr3ugP-8" value="Item 3" style="text;strokeColor=none;fillColor=none;spacingLeft=4;spacingRight=4;overflow=hidden;rotatable=0;points=[[0,0.5],[1,0.5]];portConstraint=eastwest;fontSize=12;" parent="WfEJxo9nf9D_jSNr3ugP-5" vertex="1">
          <mxGeometry y="86" width="160" height="30" as="geometry" />
        </mxCell>
        <mxCell id="WfEJxo9nf9D_jSNr3ugP-9" value="ITSolution" style="swimlane;fontStyle=0;childLayout=stackLayout;horizontal=1;startSize=26;horizontalStack=0;resizeParent=1;resizeParentMax=0;resizeLast=0;collapsible=1;marginBottom=0;align=center;fontSize=14;" parent="1" vertex="1">
          <mxGeometry x="860" y="80" width="160" height="116" as="geometry" />
        </mxCell>
        <mxCell id="WfEJxo9nf9D_jSNr3ugP-10" value="Item 1" style="text;strokeColor=none;fillColor=none;spacingLeft=4;spacingRight=4;overflow=hidden;rotatable=0;points=[[0,0.5],[1,0.5]];portConstraint=eastwest;fontSize=12;" parent="WfEJxo9nf9D_jSNr3ugP-9" vertex="1">
          <mxGeometry y="26" width="160" height="30" as="geometry" />
        </mxCell>
        <mxCell id="WfEJxo9nf9D_jSNr3ugP-11" value="Item 2" style="text;strokeColor=none;fillColor=none;spacingLeft=4;spacingRight=4;overflow=hidden;rotatable=0;points=[[0,0.5],[1,0.5]];portConstraint=eastwest;fontSize=12;" parent="WfEJxo9nf9D_jSNr3ugP-9" vertex="1">
          <mxGeometry y="56" width="160" height="30" as="geometry" />
        </mxCell>
        <mxCell id="WfEJxo9nf9D_jSNr3ugP-12" value="Item 3" style="text;strokeColor=none;fillColor=none;spacingLeft=4;spacingRight=4;overflow=hidden;rotatable=0;points=[[0,0.5],[1,0.5]];portConstraint=eastwest;fontSize=12;" parent="WfEJxo9nf9D_jSNr3ugP-9" vertex="1">
          <mxGeometry y="86" width="160" height="30" as="geometry" />
        </mxCell>
        <mxCell id="WfEJxo9nf9D_jSNr3ugP-13" value="Staff" style="swimlane;fontStyle=0;childLayout=stackLayout;horizontal=1;startSize=26;horizontalStack=0;resizeParent=1;resizeParentMax=0;resizeLast=0;collapsible=1;marginBottom=0;align=center;fontSize=14;" parent="1" vertex="1">
          <mxGeometry x="340" y="290" width="160" height="116" as="geometry" />
        </mxCell>
        <mxCell id="WfEJxo9nf9D_jSNr3ugP-14" value="Item 1" style="text;strokeColor=none;fillColor=none;spacingLeft=4;spacingRight=4;overflow=hidden;rotatable=0;points=[[0,0.5],[1,0.5]];portConstraint=eastwest;fontSize=12;" parent="WfEJxo9nf9D_jSNr3ugP-13" vertex="1">
          <mxGeometry y="26" width="160" height="30" as="geometry" />
        </mxCell>
        <mxCell id="WfEJxo9nf9D_jSNr3ugP-15" value="Item 2" style="text;strokeColor=none;fillColor=none;spacingLeft=4;spacingRight=4;overflow=hidden;rotatable=0;points=[[0,0.5],[1,0.5]];portConstraint=eastwest;fontSize=12;" parent="WfEJxo9nf9D_jSNr3ugP-13" vertex="1">
          <mxGeometry y="56" width="160" height="30" as="geometry" />
        </mxCell>
        <mxCell id="WfEJxo9nf9D_jSNr3ugP-16" value="Item 3" style="text;strokeColor=none;fillColor=none;spacingLeft=4;spacingRight=4;overflow=hidden;rotatable=0;points=[[0,0.5],[1,0.5]];portConstraint=eastwest;fontSize=12;" parent="WfEJxo9nf9D_jSNr3ugP-13" vertex="1">
          <mxGeometry y="86" width="160" height="30" as="geometry" />
        </mxCell>
        <mxCell id="WfEJxo9nf9D_jSNr3ugP-17" value="Client" style="swimlane;fontStyle=0;childLayout=stackLayout;horizontal=1;startSize=26;horizontalStack=0;resizeParent=1;resizeParentMax=0;resizeLast=0;collapsible=1;marginBottom=0;align=center;fontSize=14;" parent="1" vertex="1">
          <mxGeometry x="860" y="290" width="160" height="116" as="geometry" />
        </mxCell>
        <mxCell id="WfEJxo9nf9D_jSNr3ugP-18" value="Item 1" style="text;strokeColor=none;fillColor=none;spacingLeft=4;spacingRight=4;overflow=hidden;rotatable=0;points=[[0,0.5],[1,0.5]];portConstraint=eastwest;fontSize=12;" parent="WfEJxo9nf9D_jSNr3ugP-17" vertex="1">
          <mxGeometry y="26" width="160" height="30" as="geometry" />
        </mxCell>
        <mxCell id="WfEJxo9nf9D_jSNr3ugP-19" value="Item 2" style="text;strokeColor=none;fillColor=none;spacingLeft=4;spacingRight=4;overflow=hidden;rotatable=0;points=[[0,0.5],[1,0.5]];portConstraint=eastwest;fontSize=12;" parent="WfEJxo9nf9D_jSNr3ugP-17" vertex="1">
          <mxGeometry y="56" width="160" height="30" as="geometry" />
        </mxCell>
        <mxCell id="WfEJxo9nf9D_jSNr3ugP-20" value="Item 3" style="text;strokeColor=none;fillColor=none;spacingLeft=4;spacingRight=4;overflow=hidden;rotatable=0;points=[[0,0.5],[1,0.5]];portConstraint=eastwest;fontSize=12;" parent="WfEJxo9nf9D_jSNr3ugP-17" vertex="1">
          <mxGeometry y="86" width="160" height="30" as="geometry" />
        </mxCell>
        <mxCell id="WfEJxo9nf9D_jSNr3ugP-26" value="has" style="text;strokeColor=none;fillColor=none;spacingLeft=4;spacingRight=4;overflow=hidden;rotatable=0;points=[[0,0.5],[1,0.5]];portConstraint=eastwest;fontSize=12;" parent="1" vertex="1">
          <mxGeometry x="780" y="113" width="40" height="30" as="geometry" />
        </mxCell>
        <mxCell id="WfEJxo9nf9D_jSNr3ugP-27" value="" style="triangle;whiteSpace=wrap;html=1;fillColor=#000000;direction=west;" parent="1" vertex="1">
          <mxGeometry x="770" y="116" width="10" height="22" as="geometry" />
        </mxCell>
        <mxCell id="WfEJxo9nf9D_jSNr3ugP-31" value="has" style="shape=rhombus;perimeter=rhombusPerimeter;whiteSpace=wrap;html=1;align=center;fillColor=none;" parent="1" vertex="1">
          <mxGeometry x="357.5" y="108" width="125" height="60" as="geometry" />
        </mxCell>
        <mxCell id="WfEJxo9nf9D_jSNr3ugP-32" value="" style="line;strokeWidth=1;rotatable=0;dashed=0;labelPosition=right;align=left;verticalAlign=middle;spacingTop=0;spacingLeft=6;points=[];portConstraint=eastwest;fillColor=none;" parent="1" vertex="1">
          <mxGeometry x="482.5" y="133" width="87.5" height="10" as="geometry" />
        </mxCell>
        <mxCell id="WfEJxo9nf9D_jSNr3ugP-33" value="" style="line;strokeWidth=1;rotatable=0;dashed=0;labelPosition=right;align=left;verticalAlign=middle;spacingTop=0;spacingLeft=6;points=[];portConstraint=eastwest;fillColor=none;" parent="1" vertex="1">
          <mxGeometry x="240" y="133" width="117.5" height="10" as="geometry" />
        </mxCell>
        <mxCell id="WfEJxo9nf9D_jSNr3ugP-34" value="" style="line;strokeWidth=1;rotatable=0;dashed=0;labelPosition=right;align=left;verticalAlign=middle;spacingTop=0;spacingLeft=6;points=[];portConstraint=eastwest;fillColor=none;perimeterSpacing=1;direction=south;" parent="1" vertex="1">
          <mxGeometry x="415" y="168" width="10" height="122" as="geometry" />
        </mxCell>
        <mxCell id="WfEJxo9nf9D_jSNr3ugP-35" value="1..*" style="text;strokeColor=none;fillColor=none;spacingLeft=4;spacingRight=4;overflow=hidden;rotatable=0;points=[[0,0.5],[1,0.5]];portConstraint=eastwest;fontSize=12;" parent="1" vertex="1">
          <mxGeometry x="530" y="108" width="40" height="30" as="geometry" />
        </mxCell>
        <mxCell id="WfEJxo9nf9D_jSNr3ugP-36" value="1..*" style="text;strokeColor=none;fillColor=none;spacingLeft=4;spacingRight=4;overflow=hidden;rotatable=0;points=[[0,0.5],[1,0.5]];portConstraint=eastwest;fontSize=12;" parent="1" vertex="1">
          <mxGeometry x="425" y="260" width="40" height="30" as="geometry" />
        </mxCell>
        <mxCell id="WfEJxo9nf9D_jSNr3ugP-37" value="1..*" style="text;strokeColor=none;fillColor=none;spacingLeft=4;spacingRight=4;overflow=hidden;rotatable=0;points=[[0,0.5],[1,0.5]];portConstraint=eastwest;fontSize=12;" parent="1" vertex="1">
          <mxGeometry x="241" y="108" width="40" height="30" as="geometry" />
        </mxCell>
        <mxCell id="WfEJxo9nf9D_jSNr3ugP-38" value="" style="line;strokeWidth=1;rotatable=0;dashed=0;labelPosition=right;align=left;verticalAlign=middle;spacingTop=0;spacingLeft=6;points=[];portConstraint=eastwest;fillColor=none;perimeterSpacing=1;" parent="1" vertex="1">
          <mxGeometry x="730" y="138" width="130" height="10" as="geometry" />
        </mxCell>
        <mxCell id="WfEJxo9nf9D_jSNr3ugP-39" value="1..1" style="text;strokeColor=none;fillColor=none;spacingLeft=4;spacingRight=4;overflow=hidden;rotatable=0;points=[[0,0.5],[1,0.5]];portConstraint=eastwest;fontSize=12;" parent="1" vertex="1">
          <mxGeometry x="830" y="143" width="40" height="30" as="geometry" />
        </mxCell>
        <mxCell id="WfEJxo9nf9D_jSNr3ugP-40" value="1..1" style="text;strokeColor=none;fillColor=none;spacingLeft=4;spacingRight=4;overflow=hidden;rotatable=0;points=[[0,0.5],[1,0.5]];portConstraint=eastwest;fontSize=12;" parent="1" vertex="1">
          <mxGeometry x="730" y="143" width="40" height="30" as="geometry" />
        </mxCell>
        <mxCell id="WfEJxo9nf9D_jSNr3ugP-44" value="" style="line;strokeWidth=1;rotatable=0;dashed=0;labelPosition=right;align=left;verticalAlign=middle;spacingTop=0;spacingLeft=6;points=[];portConstraint=eastwest;fillColor=none;perimeterSpacing=1;direction=south;" parent="1" vertex="1">
          <mxGeometry x="935" y="196" width="10" height="94" as="geometry" />
        </mxCell>
        <mxCell id="WfEJxo9nf9D_jSNr3ugP-45" value="requests" style="text;strokeColor=none;fillColor=none;spacingLeft=4;spacingRight=4;overflow=hidden;rotatable=0;points=[[0,0.5],[1,0.5]];portConstraint=eastwest;fontSize=12;" parent="1" vertex="1">
          <mxGeometry x="945" y="230" width="65" height="30" as="geometry" />
        </mxCell>
        <mxCell id="WfEJxo9nf9D_jSNr3ugP-47" value="" style="triangle;whiteSpace=wrap;html=1;fillColor=#000000;direction=north;" parent="1" vertex="1">
          <mxGeometry x="1000" y="240" width="22" height="10" as="geometry" />
        </mxCell>
        <mxCell id="WfEJxo9nf9D_jSNr3ugP-48" value="1..1" style="text;strokeColor=none;fillColor=none;spacingLeft=4;spacingRight=4;overflow=hidden;rotatable=0;points=[[0,0.5],[1,0.5]];portConstraint=eastwest;fontSize=12;" parent="1" vertex="1">
          <mxGeometry x="905" y="260" width="40" height="30" as="geometry" />
        </mxCell>
        <mxCell id="WfEJxo9nf9D_jSNr3ugP-49" value="1..*" style="text;strokeColor=none;fillColor=none;spacingLeft=4;spacingRight=4;overflow=hidden;rotatable=0;points=[[0,0.5],[1,0.5]];portConstraint=eastwest;fontSize=12;" parent="1" vertex="1">
          <mxGeometry x="905" y="196" width="40" height="30" as="geometry" />
        </mxCell>
        <mxCell id="WfEJxo9nf9D_jSNr3ugP-53" value="" style="line;strokeWidth=1;rotatable=0;dashed=0;labelPosition=right;align=left;verticalAlign=middle;spacingTop=0;spacingLeft=6;points=[];portConstraint=eastwest;fillColor=none;" parent="1" vertex="1">
          <mxGeometry x="500" y="343" width="160" height="10" as="geometry" />
        </mxCell>
        <mxCell id="WfEJxo9nf9D_jSNr3ugP-54" value="" style="line;strokeWidth=1;rotatable=0;dashed=0;labelPosition=right;align=left;verticalAlign=middle;spacingTop=0;spacingLeft=6;points=[];portConstraint=eastwest;fillColor=none;perimeterSpacing=1;direction=south;" parent="1" vertex="1">
          <mxGeometry x="656" y="200" width="10" height="149" as="geometry" />
        </mxCell>
        <mxCell id="WfEJxo9nf9D_jSNr3ugP-57" value="" style="triangle;whiteSpace=wrap;html=1;fillColor=#000000;direction=north;" parent="1" vertex="1">
          <mxGeometry x="674" y="246" width="22" height="10" as="geometry" />
        </mxCell>
        <mxCell id="WfEJxo9nf9D_jSNr3ugP-58" value="works" style="text;strokeColor=none;fillColor=none;spacingLeft=4;spacingRight=4;overflow=hidden;rotatable=0;points=[[0,0.5],[1,0.5]];portConstraint=eastwest;fontSize=12;" parent="1" vertex="1">
          <mxGeometry x="666" y="260" width="44" height="30" as="geometry" />
        </mxCell>
        <mxCell id="WfEJxo9nf9D_jSNr3ugP-60" value="" style="line;strokeWidth=1;rotatable=0;dashed=0;labelPosition=right;align=left;verticalAlign=middle;spacingTop=0;spacingLeft=6;points=[];portConstraint=eastwest;fillColor=none;" parent="1" vertex="1">
          <mxGeometry x="161" y="339" width="179" height="10" as="geometry" />
        </mxCell>
        <mxCell id="WfEJxo9nf9D_jSNr3ugP-61" value="" style="line;strokeWidth=1;rotatable=0;dashed=0;labelPosition=right;align=left;verticalAlign=middle;spacingTop=0;spacingLeft=6;points=[];portConstraint=eastwest;fillColor=none;perimeterSpacing=1;direction=south;" parent="1" vertex="1">
          <mxGeometry x="156" y="196" width="10" height="149" as="geometry" />
        </mxCell>
        <mxCell id="WfEJxo9nf9D_jSNr3ugP-62" value="has" style="text;strokeColor=none;fillColor=none;spacingLeft=4;spacingRight=4;overflow=hidden;rotatable=0;points=[[0,0.5],[1,0.5]];portConstraint=eastwest;fontSize=12;" parent="1" vertex="1">
          <mxGeometry x="117" y="259.5" width="44" height="30" as="geometry" />
        </mxCell>
        <mxCell id="WfEJxo9nf9D_jSNr3ugP-63" value="1..*" style="text;strokeColor=none;fillColor=none;spacingLeft=4;spacingRight=4;overflow=hidden;rotatable=0;points=[[0,0.5],[1,0.5]];portConstraint=eastwest;fontSize=12;" parent="1" vertex="1">
          <mxGeometry x="119" y="196" width="40" height="30" as="geometry" />
        </mxCell>
        <mxCell id="WfEJxo9nf9D_jSNr3ugP-64" value="1..*" style="text;strokeColor=none;fillColor=none;spacingLeft=4;spacingRight=4;overflow=hidden;rotatable=0;points=[[0,0.5],[1,0.5]];portConstraint=eastwest;fontSize=12;" parent="1" vertex="1">
          <mxGeometry x="290" y="345" width="40" height="30" as="geometry" />
        </mxCell>
        <mxCell id="WfEJxo9nf9D_jSNr3ugP-65" value="1..*" style="text;strokeColor=none;fillColor=none;spacingLeft=4;spacingRight=4;overflow=hidden;rotatable=0;points=[[0,0.5],[1,0.5]];portConstraint=eastwest;fontSize=12;" parent="1" vertex="1">
          <mxGeometry x="500" y="353" width="40" height="30" as="geometry" />
        </mxCell>
        <mxCell id="WfEJxo9nf9D_jSNr3ugP-66" value="0..*" style="text;strokeColor=none;fillColor=none;spacingLeft=4;spacingRight=4;overflow=hidden;rotatable=0;points=[[0,0.5],[1,0.5]];portConstraint=eastwest;fontSize=12;" parent="1" vertex="1">
          <mxGeometry x="665" y="200" width="40" height="30" as="geometry" />
        </mxCell>
        <mxCell id="WfEJxo9nf9D_jSNr3ugP-67" value="" style="triangle;whiteSpace=wrap;html=1;fillColor=#000000;direction=north;" parent="1" vertex="1">
          <mxGeometry x="128" y="256" width="22" height="10" as="geometry" />
        </mxCell>
      </root>
    </mxGraphModel>
  </diagram>
  <diagram id="Jg1GwqXyphB84_l1M9GT" name="Page-2">
    <mxGraphModel dx="1422" dy="762" grid="1" gridSize="10" guides="1" tooltips="1" connect="1" arrows="1" fold="1" page="1" pageScale="1" pageWidth="850" pageHeight="1100" math="0" shadow="0">
      <root>
        <mxCell id="5iKN8I4F2rZZS5khEpJR-0" />
        <mxCell id="5iKN8I4F2rZZS5khEpJR-1" parent="5iKN8I4F2rZZS5khEpJR-0" />
        <mxCell id="5iKN8I4F2rZZS5khEpJR-2" value="Staff" style="swimlane;fontStyle=0;childLayout=stackLayout;horizontal=1;startSize=26;horizontalStack=0;resizeParent=1;resizeParentMax=0;resizeLast=0;collapsible=1;marginBottom=0;align=center;fontSize=14;" vertex="1" parent="5iKN8I4F2rZZS5khEpJR-1">
          <mxGeometry x="40" y="50" width="160" height="116" as="geometry" />
        </mxCell>
        <mxCell id="5iKN8I4F2rZZS5khEpJR-3" value="Item 1" style="text;strokeColor=none;fillColor=none;spacingLeft=4;spacingRight=4;overflow=hidden;rotatable=0;points=[[0,0.5],[1,0.5]];portConstraint=eastwest;fontSize=12;" vertex="1" parent="5iKN8I4F2rZZS5khEpJR-2">
          <mxGeometry y="26" width="160" height="30" as="geometry" />
        </mxCell>
        <mxCell id="5iKN8I4F2rZZS5khEpJR-4" value="Item 2" style="text;strokeColor=none;fillColor=none;spacingLeft=4;spacingRight=4;overflow=hidden;rotatable=0;points=[[0,0.5],[1,0.5]];portConstraint=eastwest;fontSize=12;" vertex="1" parent="5iKN8I4F2rZZS5khEpJR-2">
          <mxGeometry y="56" width="160" height="30" as="geometry" />
        </mxCell>
        <mxCell id="5iKN8I4F2rZZS5khEpJR-5" value="Item 3" style="text;strokeColor=none;fillColor=none;spacingLeft=4;spacingRight=4;overflow=hidden;rotatable=0;points=[[0,0.5],[1,0.5]];portConstraint=eastwest;fontSize=12;" vertex="1" parent="5iKN8I4F2rZZS5khEpJR-2">
          <mxGeometry y="86" width="160" height="30" as="geometry" />
        </mxCell>
        <mxCell id="5iKN8I4F2rZZS5khEpJR-6" value="Skill" style="swimlane;fontStyle=0;childLayout=stackLayout;horizontal=1;startSize=26;horizontalStack=0;resizeParent=1;resizeParentMax=0;resizeLast=0;collapsible=1;marginBottom=0;align=center;fontSize=14;" vertex="1" parent="5iKN8I4F2rZZS5khEpJR-1">
          <mxGeometry x="360" y="200" width="160" height="116" as="geometry" />
        </mxCell>
        <mxCell id="5iKN8I4F2rZZS5khEpJR-7" value="Item 1" style="text;strokeColor=none;fillColor=none;spacingLeft=4;spacingRight=4;overflow=hidden;rotatable=0;points=[[0,0.5],[1,0.5]];portConstraint=eastwest;fontSize=12;" vertex="1" parent="5iKN8I4F2rZZS5khEpJR-6">
          <mxGeometry y="26" width="160" height="30" as="geometry" />
        </mxCell>
        <mxCell id="5iKN8I4F2rZZS5khEpJR-8" value="Item 2" style="text;strokeColor=none;fillColor=none;spacingLeft=4;spacingRight=4;overflow=hidden;rotatable=0;points=[[0,0.5],[1,0.5]];portConstraint=eastwest;fontSize=12;" vertex="1" parent="5iKN8I4F2rZZS5khEpJR-6">
          <mxGeometry y="56" width="160" height="30" as="geometry" />
        </mxCell>
        <mxCell id="5iKN8I4F2rZZS5khEpJR-9" value="Item 3" style="text;strokeColor=none;fillColor=none;spacingLeft=4;spacingRight=4;overflow=hidden;rotatable=0;points=[[0,0.5],[1,0.5]];portConstraint=eastwest;fontSize=12;" vertex="1" parent="5iKN8I4F2rZZS5khEpJR-6">
          <mxGeometry y="86" width="160" height="30" as="geometry" />
        </mxCell>
        <mxCell id="5iKN8I4F2rZZS5khEpJR-10" value="Project" style="swimlane;fontStyle=0;childLayout=stackLayout;horizontal=1;startSize=26;horizontalStack=0;resizeParent=1;resizeParentMax=0;resizeLast=0;collapsible=1;marginBottom=0;align=center;fontSize=14;" vertex="1" parent="5iKN8I4F2rZZS5khEpJR-1">
          <mxGeometry x="680" y="50" width="160" height="116" as="geometry" />
        </mxCell>
        <mxCell id="5iKN8I4F2rZZS5khEpJR-11" value="Item 1" style="text;strokeColor=none;fillColor=none;spacingLeft=4;spacingRight=4;overflow=hidden;rotatable=0;points=[[0,0.5],[1,0.5]];portConstraint=eastwest;fontSize=12;" vertex="1" parent="5iKN8I4F2rZZS5khEpJR-10">
          <mxGeometry y="26" width="160" height="30" as="geometry" />
        </mxCell>
        <mxCell id="5iKN8I4F2rZZS5khEpJR-12" value="Item 2" style="text;strokeColor=none;fillColor=none;spacingLeft=4;spacingRight=4;overflow=hidden;rotatable=0;points=[[0,0.5],[1,0.5]];portConstraint=eastwest;fontSize=12;" vertex="1" parent="5iKN8I4F2rZZS5khEpJR-10">
          <mxGeometry y="56" width="160" height="30" as="geometry" />
        </mxCell>
        <mxCell id="5iKN8I4F2rZZS5khEpJR-13" value="Item 3" style="text;strokeColor=none;fillColor=none;spacingLeft=4;spacingRight=4;overflow=hidden;rotatable=0;points=[[0,0.5],[1,0.5]];portConstraint=eastwest;fontSize=12;" vertex="1" parent="5iKN8I4F2rZZS5khEpJR-10">
          <mxGeometry y="86" width="160" height="30" as="geometry" />
        </mxCell>
        <mxCell id="5iKN8I4F2rZZS5khEpJR-19" style="edgeStyle=orthogonalEdgeStyle;rounded=0;orthogonalLoop=1;jettySize=auto;html=1;entryX=0;entryY=0.733;entryDx=0;entryDy=0;entryPerimeter=0;endArrow=none;endFill=0;" edge="1" parent="5iKN8I4F2rZZS5khEpJR-1" source="5iKN8I4F2rZZS5khEpJR-14" target="5iKN8I4F2rZZS5khEpJR-11">
          <mxGeometry relative="1" as="geometry" />
        </mxCell>
        <mxCell id="5iKN8I4F2rZZS5khEpJR-20" style="edgeStyle=orthogonalEdgeStyle;rounded=0;orthogonalLoop=1;jettySize=auto;html=1;entryX=0.5;entryY=0;entryDx=0;entryDy=0;endArrow=none;endFill=0;" edge="1" parent="5iKN8I4F2rZZS5khEpJR-1" source="5iKN8I4F2rZZS5khEpJR-14" target="5iKN8I4F2rZZS5khEpJR-6">
          <mxGeometry relative="1" as="geometry" />
        </mxCell>
        <mxCell id="5iKN8I4F2rZZS5khEpJR-14" value="Uses" style="rhombus;whiteSpace=wrap;html=1;" vertex="1" parent="5iKN8I4F2rZZS5khEpJR-1">
          <mxGeometry x="372.5" y="58" width="135" height="80" as="geometry" />
        </mxCell>
        <mxCell id="5iKN8I4F2rZZS5khEpJR-16" style="edgeStyle=orthogonalEdgeStyle;rounded=0;orthogonalLoop=1;jettySize=auto;html=1;entryX=0;entryY=0.5;entryDx=0;entryDy=0;endArrow=none;endFill=0;" edge="1" parent="5iKN8I4F2rZZS5khEpJR-1" target="5iKN8I4F2rZZS5khEpJR-14">
          <mxGeometry relative="1" as="geometry">
            <mxPoint x="200" y="98" as="sourcePoint" />
          </mxGeometry>
        </mxCell>
        <mxCell id="FdBoFdtD9wzK8o_khKnn-0" style="edgeStyle=orthogonalEdgeStyle;rounded=0;orthogonalLoop=1;jettySize=auto;html=1;entryX=0.469;entryY=1.033;entryDx=0;entryDy=0;entryPerimeter=0;endArrow=none;endFill=0;" edge="1" parent="5iKN8I4F2rZZS5khEpJR-1" source="5iKN8I4F2rZZS5khEpJR-8" target="5iKN8I4F2rZZS5khEpJR-5">
          <mxGeometry relative="1" as="geometry" />
        </mxCell>
        <mxCell id="FdBoFdtD9wzK8o_khKnn-1" style="edgeStyle=orthogonalEdgeStyle;rounded=0;orthogonalLoop=1;jettySize=auto;html=1;entryX=0.5;entryY=1;entryDx=0;entryDy=0;entryPerimeter=0;endArrow=none;endFill=0;" edge="1" parent="5iKN8I4F2rZZS5khEpJR-1" source="5iKN8I4F2rZZS5khEpJR-8" target="5iKN8I4F2rZZS5khEpJR-13">
          <mxGeometry relative="1" as="geometry" />
        </mxCell>
        <mxCell id="XOnHgIzQZHB8i-nI2klq-4" style="edgeStyle=orthogonalEdgeStyle;rounded=0;orthogonalLoop=1;jettySize=auto;html=1;entryX=0.969;entryY=0.067;entryDx=0;entryDy=0;entryPerimeter=0;endArrow=none;endFill=0;" edge="1" parent="5iKN8I4F2rZZS5khEpJR-1" source="XOnHgIzQZHB8i-nI2klq-0" target="5iKN8I4F2rZZS5khEpJR-12">
          <mxGeometry relative="1" as="geometry" />
        </mxCell>
        <mxCell id="XOnHgIzQZHB8i-nI2klq-0" value="ITSolution" style="swimlane;fontStyle=0;childLayout=stackLayout;horizontal=1;startSize=26;horizontalStack=0;resizeParent=1;resizeParentMax=0;resizeLast=0;collapsible=1;marginBottom=0;align=center;fontSize=14;" vertex="1" parent="5iKN8I4F2rZZS5khEpJR-1">
          <mxGeometry x="1071" y="50" width="160" height="116" as="geometry" />
        </mxCell>
        <mxCell id="XOnHgIzQZHB8i-nI2klq-1" value="Item 1" style="text;strokeColor=none;fillColor=none;spacingLeft=4;spacingRight=4;overflow=hidden;rotatable=0;points=[[0,0.5],[1,0.5]];portConstraint=eastwest;fontSize=12;" vertex="1" parent="XOnHgIzQZHB8i-nI2klq-0">
          <mxGeometry y="26" width="160" height="30" as="geometry" />
        </mxCell>
        <mxCell id="XOnHgIzQZHB8i-nI2klq-2" value="Item 2" style="text;strokeColor=none;fillColor=none;spacingLeft=4;spacingRight=4;overflow=hidden;rotatable=0;points=[[0,0.5],[1,0.5]];portConstraint=eastwest;fontSize=12;" vertex="1" parent="XOnHgIzQZHB8i-nI2klq-0">
          <mxGeometry y="56" width="160" height="30" as="geometry" />
        </mxCell>
        <mxCell id="XOnHgIzQZHB8i-nI2klq-3" value="Item 3" style="text;strokeColor=none;fillColor=none;spacingLeft=4;spacingRight=4;overflow=hidden;rotatable=0;points=[[0,0.5],[1,0.5]];portConstraint=eastwest;fontSize=12;" vertex="1" parent="XOnHgIzQZHB8i-nI2klq-0">
          <mxGeometry y="86" width="160" height="30" as="geometry" />
        </mxCell>
        <mxCell id="XOnHgIzQZHB8i-nI2klq-9" style="edgeStyle=orthogonalEdgeStyle;rounded=0;orthogonalLoop=1;jettySize=auto;html=1;entryX=0.494;entryY=1;entryDx=0;entryDy=0;entryPerimeter=0;endArrow=none;endFill=0;" edge="1" parent="5iKN8I4F2rZZS5khEpJR-1" source="XOnHgIzQZHB8i-nI2klq-5" target="XOnHgIzQZHB8i-nI2klq-3">
          <mxGeometry relative="1" as="geometry" />
        </mxCell>
        <mxCell id="XOnHgIzQZHB8i-nI2klq-5" value="Client" style="swimlane;fontStyle=0;childLayout=stackLayout;horizontal=1;startSize=26;horizontalStack=0;resizeParent=1;resizeParentMax=0;resizeLast=0;collapsible=1;marginBottom=0;align=center;fontSize=14;" vertex="1" parent="5iKN8I4F2rZZS5khEpJR-1">
          <mxGeometry x="1070" y="273" width="160" height="116" as="geometry" />
        </mxCell>
        <mxCell id="XOnHgIzQZHB8i-nI2klq-6" value="Item 1" style="text;strokeColor=none;fillColor=none;spacingLeft=4;spacingRight=4;overflow=hidden;rotatable=0;points=[[0,0.5],[1,0.5]];portConstraint=eastwest;fontSize=12;" vertex="1" parent="XOnHgIzQZHB8i-nI2klq-5">
          <mxGeometry y="26" width="160" height="30" as="geometry" />
        </mxCell>
        <mxCell id="XOnHgIzQZHB8i-nI2klq-8" value="Item 3" style="text;strokeColor=none;fillColor=none;spacingLeft=4;spacingRight=4;overflow=hidden;rotatable=0;points=[[0,0.5],[1,0.5]];portConstraint=eastwest;fontSize=12;" vertex="1" parent="XOnHgIzQZHB8i-nI2klq-5">
          <mxGeometry y="56" width="160" height="30" as="geometry" />
        </mxCell>
        <mxCell id="XOnHgIzQZHB8i-nI2klq-7" value="Item 2" style="text;strokeColor=none;fillColor=none;spacingLeft=4;spacingRight=4;overflow=hidden;rotatable=0;points=[[0,0.5],[1,0.5]];portConstraint=eastwest;fontSize=12;" vertex="1" parent="XOnHgIzQZHB8i-nI2klq-5">
          <mxGeometry y="86" width="160" height="30" as="geometry" />
        </mxCell>
        <mxCell id="XOnHgIzQZHB8i-nI2klq-10" value="1..*" style="text;html=1;strokeColor=none;fillColor=none;align=center;verticalAlign=middle;whiteSpace=wrap;rounded=0;" vertex="1" parent="5iKN8I4F2rZZS5khEpJR-1">
          <mxGeometry x="300" y="273" width="60" height="30" as="geometry" />
        </mxCell>
        <mxCell id="XOnHgIzQZHB8i-nI2klq-11" value="1..*" style="text;html=1;strokeColor=none;fillColor=none;align=center;verticalAlign=middle;whiteSpace=wrap;rounded=0;" vertex="1" parent="5iKN8I4F2rZZS5khEpJR-1">
          <mxGeometry x="620" y="70" width="60" height="30" as="geometry" />
        </mxCell>
        <mxCell id="XOnHgIzQZHB8i-nI2klq-12" value="1..*" style="text;html=1;strokeColor=none;fillColor=none;align=center;verticalAlign=middle;whiteSpace=wrap;rounded=0;" vertex="1" parent="5iKN8I4F2rZZS5khEpJR-1">
          <mxGeometry x="200" y="70" width="60" height="30" as="geometry" />
        </mxCell>
        <mxCell id="aJvnjbXUCUfcdrNAXqU9-0" value="0..*" style="text;html=1;strokeColor=none;fillColor=none;align=center;verticalAlign=middle;whiteSpace=wrap;rounded=0;" vertex="1" parent="5iKN8I4F2rZZS5khEpJR-1">
          <mxGeometry x="700" y="170" width="60" height="30" as="geometry" />
        </mxCell>
        <mxCell id="aJvnjbXUCUfcdrNAXqU9-1" value="1..*" style="text;html=1;strokeColor=none;fillColor=none;align=center;verticalAlign=middle;whiteSpace=wrap;rounded=0;" vertex="1" parent="5iKN8I4F2rZZS5khEpJR-1">
          <mxGeometry x="50" y="170" width="60" height="30" as="geometry" />
        </mxCell>
        <mxCell id="aJvnjbXUCUfcdrNAXqU9-2" value="belongs to" style="text;html=1;strokeColor=none;fillColor=none;align=center;verticalAlign=middle;whiteSpace=wrap;rounded=0;" vertex="1" parent="5iKN8I4F2rZZS5khEpJR-1">
          <mxGeometry x="180" y="243" width="60" height="30" as="geometry" />
        </mxCell>
        <mxCell id="aJvnjbXUCUfcdrNAXqU9-3" value="" style="triangle;whiteSpace=wrap;html=1;direction=west;fillColor=#000000;" vertex="1" parent="5iKN8I4F2rZZS5khEpJR-1">
          <mxGeometry x="150" y="249" width="20" height="18" as="geometry" />
        </mxCell>
        <mxCell id="aJvnjbXUCUfcdrNAXqU9-4" value="uses" style="text;html=1;strokeColor=none;fillColor=none;align=center;verticalAlign=middle;whiteSpace=wrap;rounded=0;" vertex="1" parent="5iKN8I4F2rZZS5khEpJR-1">
          <mxGeometry x="610" y="243" width="60" height="30" as="geometry" />
        </mxCell>
        <mxCell id="aJvnjbXUCUfcdrNAXqU9-5" value="" style="triangle;whiteSpace=wrap;html=1;direction=east;fillColor=#000000;" vertex="1" parent="5iKN8I4F2rZZS5khEpJR-1">
          <mxGeometry x="670" y="249" width="20" height="18" as="geometry" />
        </mxCell>
        <mxCell id="aJvnjbXUCUfcdrNAXqU9-6" value="1..*" style="text;html=1;strokeColor=none;fillColor=none;align=center;verticalAlign=middle;whiteSpace=wrap;rounded=0;" vertex="1" parent="5iKN8I4F2rZZS5khEpJR-1">
          <mxGeometry x="520" y="237" width="60" height="30" as="geometry" />
        </mxCell>
        <mxCell id="aJvnjbXUCUfcdrNAXqU9-7" value="1..*" style="text;html=1;strokeColor=none;fillColor=none;align=center;verticalAlign=middle;whiteSpace=wrap;rounded=0;" vertex="1" parent="5iKN8I4F2rZZS5khEpJR-1">
          <mxGeometry x="440" y="166" width="60" height="30" as="geometry" />
        </mxCell>
        <mxCell id="dOJryipVKyUMvjvePvgh-0" value="has" style="text;html=1;strokeColor=none;fillColor=none;align=center;verticalAlign=middle;whiteSpace=wrap;rounded=0;" vertex="1" parent="5iKN8I4F2rZZS5khEpJR-1">
          <mxGeometry x="930" y="77" width="60" height="30" as="geometry" />
        </mxCell>
        <mxCell id="dOJryipVKyUMvjvePvgh-2" value="" style="triangle;whiteSpace=wrap;html=1;direction=west;fillColor=#000000;" vertex="1" parent="5iKN8I4F2rZZS5khEpJR-1">
          <mxGeometry x="924" y="83" width="20" height="18" as="geometry" />
        </mxCell>
        <mxCell id="dOJryipVKyUMvjvePvgh-3" value="1..1" style="text;html=1;strokeColor=none;fillColor=none;align=center;verticalAlign=middle;whiteSpace=wrap;rounded=0;" vertex="1" parent="5iKN8I4F2rZZS5khEpJR-1">
          <mxGeometry x="1010" y="77" width="60" height="30" as="geometry" />
        </mxCell>
        <mxCell id="dOJryipVKyUMvjvePvgh-4" value="1..1" style="text;html=1;strokeColor=none;fillColor=none;align=center;verticalAlign=middle;whiteSpace=wrap;rounded=0;" vertex="1" parent="5iKN8I4F2rZZS5khEpJR-1">
          <mxGeometry x="840" y="77" width="60" height="30" as="geometry" />
        </mxCell>
        <mxCell id="NvoIipukuYUNA2qAulf7-0" value="requests" style="text;html=1;strokeColor=none;fillColor=none;align=center;verticalAlign=middle;whiteSpace=wrap;rounded=0;" vertex="1" parent="5iKN8I4F2rZZS5khEpJR-1">
          <mxGeometry x="1150" y="200" width="60" height="30" as="geometry" />
        </mxCell>
        <mxCell id="NvoIipukuYUNA2qAulf7-1" value="" style="triangle;whiteSpace=wrap;html=1;direction=north;fillColor=#000000;" vertex="1" parent="5iKN8I4F2rZZS5khEpJR-1">
          <mxGeometry x="1211" y="205" width="18" height="20" as="geometry" />
        </mxCell>
        <mxCell id="NvoIipukuYUNA2qAulf7-2" value="1..*" style="text;html=1;strokeColor=none;fillColor=none;align=center;verticalAlign=middle;whiteSpace=wrap;rounded=0;" vertex="1" parent="5iKN8I4F2rZZS5khEpJR-1">
          <mxGeometry x="1150" y="166" width="60" height="30" as="geometry" />
        </mxCell>
        <mxCell id="NvoIipukuYUNA2qAulf7-3" value="1..1" style="text;html=1;strokeColor=none;fillColor=none;align=center;verticalAlign=middle;whiteSpace=wrap;rounded=0;" vertex="1" parent="5iKN8I4F2rZZS5khEpJR-1">
          <mxGeometry x="1150" y="243" width="60" height="30" as="geometry" />
        </mxCell>
      </root>
    </mxGraphModel>
  </diagram>
</mxfile>
